<mxfile host="app.diagrams.net" modified="2024-07-13T01:45:19.097Z" agent="Mozilla/5.0 (Windows NT 10.0; Win64; x64) AppleWebKit/537.36 (KHTML, like Gecko) Chrome/126.0.0.0 Safari/537.36" etag="mD0zVZqp2q0HvLTWUl1u" version="24.6.5" type="device">
  <diagram name="Page-1" id="TQXA3-NGzkhPWEnTpOrJ">
    <mxGraphModel dx="2033" dy="703" grid="1" gridSize="10" guides="1" tooltips="1" connect="1" arrows="1" fold="1" page="1" pageScale="1" pageWidth="850" pageHeight="1100" math="0" shadow="0">
      <root>
        <mxCell id="0" />
        <mxCell id="1" parent="0" />
        <mxCell id="mvhrts1h2w41lXXfuZjm-31" style="edgeStyle=orthogonalEdgeStyle;rounded=0;orthogonalLoop=1;jettySize=auto;html=1;exitX=0;exitY=1;exitDx=0;exitDy=0;exitPerimeter=0;entryX=1;entryY=0.5;entryDx=0;entryDy=0;fillColor=#ffe6cc;strokeColor=#d79b00;" edge="1" parent="1" source="mvhrts1h2w41lXXfuZjm-4" target="mvhrts1h2w41lXXfuZjm-10">
          <mxGeometry relative="1" as="geometry" />
        </mxCell>
        <mxCell id="mvhrts1h2w41lXXfuZjm-32" style="edgeStyle=orthogonalEdgeStyle;rounded=0;orthogonalLoop=1;jettySize=auto;html=1;exitX=0;exitY=1;exitDx=0;exitDy=0;exitPerimeter=0;fillColor=#ffe6cc;strokeColor=#d79b00;" edge="1" parent="1" source="mvhrts1h2w41lXXfuZjm-4" target="mvhrts1h2w41lXXfuZjm-11">
          <mxGeometry relative="1" as="geometry">
            <Array as="points">
              <mxPoint x="530" y="330" />
              <mxPoint x="25" y="330" />
            </Array>
          </mxGeometry>
        </mxCell>
        <mxCell id="mvhrts1h2w41lXXfuZjm-34" style="edgeStyle=orthogonalEdgeStyle;rounded=0;orthogonalLoop=1;jettySize=auto;html=1;exitX=1;exitY=0.3333333333333333;exitDx=0;exitDy=0;exitPerimeter=0;entryX=0.5;entryY=1;entryDx=0;entryDy=0;fillColor=#ffe6cc;strokeColor=#d79b00;" edge="1" parent="1" source="mvhrts1h2w41lXXfuZjm-4" target="mvhrts1h2w41lXXfuZjm-33">
          <mxGeometry relative="1" as="geometry" />
        </mxCell>
        <mxCell id="mvhrts1h2w41lXXfuZjm-35" style="edgeStyle=orthogonalEdgeStyle;rounded=0;orthogonalLoop=1;jettySize=auto;html=1;exitX=0.5;exitY=0;exitDx=0;exitDy=0;exitPerimeter=0;entryX=1;entryY=0.5;entryDx=0;entryDy=0;fillColor=#ffe6cc;strokeColor=#d79b00;" edge="1" parent="1" source="mvhrts1h2w41lXXfuZjm-4" target="mvhrts1h2w41lXXfuZjm-12">
          <mxGeometry relative="1" as="geometry" />
        </mxCell>
        <mxCell id="mvhrts1h2w41lXXfuZjm-36" style="edgeStyle=orthogonalEdgeStyle;rounded=0;orthogonalLoop=1;jettySize=auto;html=1;exitX=1;exitY=1;exitDx=0;exitDy=0;exitPerimeter=0;entryX=1;entryY=0.5;entryDx=0;entryDy=0;fillColor=#ffe6cc;strokeColor=#d79b00;" edge="1" parent="1" source="mvhrts1h2w41lXXfuZjm-4" target="mvhrts1h2w41lXXfuZjm-13">
          <mxGeometry relative="1" as="geometry" />
        </mxCell>
        <mxCell id="mvhrts1h2w41lXXfuZjm-37" style="edgeStyle=orthogonalEdgeStyle;rounded=0;orthogonalLoop=1;jettySize=auto;html=1;exitX=1;exitY=0.3333333333333333;exitDx=0;exitDy=0;exitPerimeter=0;entryX=0.5;entryY=0;entryDx=0;entryDy=0;fillColor=#ffe6cc;strokeColor=#d79b00;" edge="1" parent="1" source="mvhrts1h2w41lXXfuZjm-4" target="mvhrts1h2w41lXXfuZjm-14">
          <mxGeometry relative="1" as="geometry" />
        </mxCell>
        <mxCell id="mvhrts1h2w41lXXfuZjm-40" style="edgeStyle=orthogonalEdgeStyle;rounded=0;orthogonalLoop=1;jettySize=auto;html=1;exitX=0.75;exitY=0.1;exitDx=0;exitDy=0;exitPerimeter=0;entryX=0.5;entryY=1;entryDx=0;entryDy=0;fillColor=#ffe6cc;strokeColor=#d79b00;" edge="1" parent="1" source="mvhrts1h2w41lXXfuZjm-4" target="mvhrts1h2w41lXXfuZjm-15">
          <mxGeometry relative="1" as="geometry" />
        </mxCell>
        <mxCell id="mvhrts1h2w41lXXfuZjm-41" style="edgeStyle=orthogonalEdgeStyle;rounded=0;orthogonalLoop=1;jettySize=auto;html=1;exitX=0.5;exitY=0.5;exitDx=0;exitDy=0;exitPerimeter=0;entryX=1;entryY=0;entryDx=0;entryDy=0;fillColor=#ffe6cc;strokeColor=#d79b00;" edge="1" parent="1" source="mvhrts1h2w41lXXfuZjm-4" target="mvhrts1h2w41lXXfuZjm-16">
          <mxGeometry relative="1" as="geometry" />
        </mxCell>
        <mxCell id="mvhrts1h2w41lXXfuZjm-42" style="edgeStyle=orthogonalEdgeStyle;rounded=0;orthogonalLoop=1;jettySize=auto;html=1;exitX=0.5;exitY=0.5;exitDx=0;exitDy=0;exitPerimeter=0;entryX=0;entryY=0;entryDx=0;entryDy=0;fillColor=#ffe6cc;strokeColor=#d79b00;" edge="1" parent="1" source="mvhrts1h2w41lXXfuZjm-4" target="mvhrts1h2w41lXXfuZjm-17">
          <mxGeometry relative="1" as="geometry" />
        </mxCell>
        <mxCell id="mvhrts1h2w41lXXfuZjm-4" value="Admin" style="shape=umlActor;verticalLabelPosition=bottom;verticalAlign=top;html=1;outlineConnect=0;" vertex="1" parent="1">
          <mxGeometry x="550" y="410" width="40" height="70" as="geometry" />
        </mxCell>
        <mxCell id="mvhrts1h2w41lXXfuZjm-23" style="edgeStyle=orthogonalEdgeStyle;rounded=0;orthogonalLoop=1;jettySize=auto;html=1;exitX=0.25;exitY=0.1;exitDx=0;exitDy=0;exitPerimeter=0;fillColor=#d5e8d4;strokeColor=#82b366;" edge="1" parent="1" source="mvhrts1h2w41lXXfuZjm-6" target="mvhrts1h2w41lXXfuZjm-8">
          <mxGeometry relative="1" as="geometry">
            <mxPoint x="270" y="330" as="targetPoint" />
          </mxGeometry>
        </mxCell>
        <mxCell id="mvhrts1h2w41lXXfuZjm-25" style="edgeStyle=orthogonalEdgeStyle;rounded=0;orthogonalLoop=1;jettySize=auto;html=1;exitX=0;exitY=0.3333333333333333;exitDx=0;exitDy=0;exitPerimeter=0;entryX=0.769;entryY=1.007;entryDx=0;entryDy=0;entryPerimeter=0;fillColor=#d5e8d4;strokeColor=#82b366;" edge="1" parent="1" source="mvhrts1h2w41lXXfuZjm-6" target="mvhrts1h2w41lXXfuZjm-11">
          <mxGeometry relative="1" as="geometry">
            <mxPoint x="90" y="340" as="targetPoint" />
          </mxGeometry>
        </mxCell>
        <mxCell id="mvhrts1h2w41lXXfuZjm-26" style="edgeStyle=orthogonalEdgeStyle;rounded=0;orthogonalLoop=1;jettySize=auto;html=1;exitX=0.5;exitY=0;exitDx=0;exitDy=0;exitPerimeter=0;fillColor=#d5e8d4;strokeColor=#82b366;" edge="1" parent="1" source="mvhrts1h2w41lXXfuZjm-6" target="mvhrts1h2w41lXXfuZjm-12">
          <mxGeometry relative="1" as="geometry" />
        </mxCell>
        <mxCell id="mvhrts1h2w41lXXfuZjm-27" value="" style="edgeStyle=orthogonalEdgeStyle;rounded=0;orthogonalLoop=1;jettySize=auto;html=1;fillColor=#d5e8d4;strokeColor=#82b366;" edge="1" parent="1" source="mvhrts1h2w41lXXfuZjm-6" target="mvhrts1h2w41lXXfuZjm-13">
          <mxGeometry relative="1" as="geometry" />
        </mxCell>
        <mxCell id="mvhrts1h2w41lXXfuZjm-6" value="CLient" style="shape=umlActor;verticalLabelPosition=bottom;verticalAlign=top;html=1;outlineConnect=0;" vertex="1" parent="1">
          <mxGeometry x="140" y="460" width="30" height="60" as="geometry" />
        </mxCell>
        <mxCell id="mvhrts1h2w41lXXfuZjm-46" style="edgeStyle=orthogonalEdgeStyle;rounded=0;orthogonalLoop=1;jettySize=auto;html=1;exitX=1;exitY=1;exitDx=0;exitDy=0;exitPerimeter=0;entryX=0;entryY=0.5;entryDx=0;entryDy=0;fillColor=#1ba1e2;strokeColor=#006EAF;" edge="1" parent="1" source="mvhrts1h2w41lXXfuZjm-7" target="mvhrts1h2w41lXXfuZjm-14">
          <mxGeometry relative="1" as="geometry" />
        </mxCell>
        <mxCell id="mvhrts1h2w41lXXfuZjm-47" style="edgeStyle=orthogonalEdgeStyle;rounded=0;orthogonalLoop=1;jettySize=auto;html=1;exitX=0.5;exitY=0.5;exitDx=0;exitDy=0;exitPerimeter=0;fillColor=#1ba1e2;strokeColor=#006EAF;" edge="1" parent="1" source="mvhrts1h2w41lXXfuZjm-7" target="mvhrts1h2w41lXXfuZjm-15">
          <mxGeometry relative="1" as="geometry" />
        </mxCell>
        <mxCell id="mvhrts1h2w41lXXfuZjm-7" value="Employee" style="shape=umlActor;verticalLabelPosition=bottom;verticalAlign=top;html=1;outlineConnect=0;" vertex="1" parent="1">
          <mxGeometry x="320" y="650" width="30" height="60" as="geometry" />
        </mxCell>
        <mxCell id="mvhrts1h2w41lXXfuZjm-8" value="Managing Client Info." style="ellipse;whiteSpace=wrap;html=1;" vertex="1" parent="1">
          <mxGeometry x="210" y="150" width="140" height="70" as="geometry" />
        </mxCell>
        <mxCell id="mvhrts1h2w41lXXfuZjm-10" value="Managing Pet Info." style="ellipse;whiteSpace=wrap;html=1;" vertex="1" parent="1">
          <mxGeometry x="97.5" y="700" width="135" height="80" as="geometry" />
        </mxCell>
        <mxCell id="mvhrts1h2w41lXXfuZjm-11" value="Handling Reservations" style="ellipse;whiteSpace=wrap;html=1;" vertex="1" parent="1">
          <mxGeometry x="-40" y="200" width="130" height="80" as="geometry" />
        </mxCell>
        <mxCell id="mvhrts1h2w41lXXfuZjm-12" value="Pet Care Instructions" style="ellipse;whiteSpace=wrap;html=1;" vertex="1" parent="1">
          <mxGeometry x="380" y="220" width="140" height="80" as="geometry" />
        </mxCell>
        <mxCell id="mvhrts1h2w41lXXfuZjm-13" value="Deploying Notifications" style="ellipse;whiteSpace=wrap;html=1;" vertex="1" parent="1">
          <mxGeometry x="-120" y="580" width="150" height="80" as="geometry" />
        </mxCell>
        <mxCell id="mvhrts1h2w41lXXfuZjm-14" value="Overseeing Facility" style="ellipse;whiteSpace=wrap;html=1;" vertex="1" parent="1">
          <mxGeometry x="500" y="800" width="140" height="80" as="geometry" />
        </mxCell>
        <mxCell id="mvhrts1h2w41lXXfuZjm-15" value="Creating Reports" style="ellipse;whiteSpace=wrap;html=1;" vertex="1" parent="1">
          <mxGeometry x="610" y="255" width="140" height="80" as="geometry" />
        </mxCell>
        <mxCell id="mvhrts1h2w41lXXfuZjm-16" value="Creating Accounts" style="ellipse;whiteSpace=wrap;html=1;" vertex="1" parent="1">
          <mxGeometry x="260" y="470" width="140" height="80" as="geometry" />
        </mxCell>
        <mxCell id="mvhrts1h2w41lXXfuZjm-17" value="Upkeep System Performance" style="ellipse;whiteSpace=wrap;html=1;" vertex="1" parent="1">
          <mxGeometry x="690" y="660" width="140" height="80" as="geometry" />
        </mxCell>
        <mxCell id="mvhrts1h2w41lXXfuZjm-24" style="edgeStyle=orthogonalEdgeStyle;rounded=0;orthogonalLoop=1;jettySize=auto;html=1;entryX=0.235;entryY=0.176;entryDx=0;entryDy=0;entryPerimeter=0;fillColor=#d5e8d4;strokeColor=#82b366;" edge="1" parent="1" source="mvhrts1h2w41lXXfuZjm-6" target="mvhrts1h2w41lXXfuZjm-10">
          <mxGeometry relative="1" as="geometry" />
        </mxCell>
        <mxCell id="mvhrts1h2w41lXXfuZjm-29" style="edgeStyle=orthogonalEdgeStyle;rounded=0;orthogonalLoop=1;jettySize=auto;html=1;exitX=0;exitY=0.3333333333333333;exitDx=0;exitDy=0;exitPerimeter=0;entryX=0.901;entryY=0.741;entryDx=0;entryDy=0;entryPerimeter=0;fillColor=#ffe6cc;strokeColor=#d79b00;" edge="1" parent="1" source="mvhrts1h2w41lXXfuZjm-4" target="mvhrts1h2w41lXXfuZjm-8">
          <mxGeometry relative="1" as="geometry" />
        </mxCell>
        <mxCell id="mvhrts1h2w41lXXfuZjm-33" value="Processing Payment Info" style="ellipse;whiteSpace=wrap;html=1;" vertex="1" parent="1">
          <mxGeometry x="520" y="130" width="120" height="80" as="geometry" />
        </mxCell>
        <mxCell id="mvhrts1h2w41lXXfuZjm-45" style="edgeStyle=orthogonalEdgeStyle;rounded=0;orthogonalLoop=1;jettySize=auto;html=1;exitX=1;exitY=0.3333333333333333;exitDx=0;exitDy=0;exitPerimeter=0;entryX=0.353;entryY=1.016;entryDx=0;entryDy=0;entryPerimeter=0;fillColor=#1ba1e2;strokeColor=#006EAF;" edge="1" parent="1" source="mvhrts1h2w41lXXfuZjm-7" target="mvhrts1h2w41lXXfuZjm-12">
          <mxGeometry relative="1" as="geometry" />
        </mxCell>
      </root>
    </mxGraphModel>
  </diagram>
</mxfile>
